<svg id="Layer_1" data-name="Layer 1" xmlns="http://www.w3.org/2000/svg" xmlns:xlink="http://www.w3.org/1999/xlink" viewBox="0 0 32 45"><defs><style>.cls-1{fill:#2062af;}.cls-2{fill:#3c9cd7;}.cls-3{fill:#fff;}.cls-4{fill:url(#linear-gradient);}.cls-5{fill:url(#linear-gradient-2);}.cls-6{fill:url(#linear-gradient-3);}.cls-7{opacity:0.05;isolation:isolate;}.cls-8{fill:url(#linear-gradient-4);}</style><linearGradient id="linear-gradient" x1="-1042.7" y1="-1607.86" x2="-1042.7" y2="-1609.52" gradientTransform="translate(4851.36 7490.75) scale(4.64)" gradientUnits="userSpaceOnUse"><stop offset="0.39" stop-color="#d1d3d4" stop-opacity="0"/><stop offset="1" stop-color="#d1d3d4"/></linearGradient><linearGradient id="linear-gradient-2" x1="-1040.63" y1="-1608.69" x2="-1040.63" y2="-1610.42" xlink:href="#linear-gradient"/><linearGradient id="linear-gradient-3" x1="-1043.7" y1="-1607.11" x2="-1039.71" y2="-1607.11" gradientTransform="translate(4851.36 7490.75) scale(4.64)" gradientUnits="userSpaceOnUse"><stop offset="0" stop-color="#e8e7e5"/><stop offset="1" stop-color="#fff"/></linearGradient><linearGradient id="linear-gradient-4" x1="-1043.89" y1="-1610" x2="-1039.55" y2="-1610" xlink:href="#linear-gradient-3"/></defs><title>css3-icon</title><path class="cls-1" d="M29,41.49,16,45,3,41.49,0,8.86H32Z"/><path class="cls-2" d="M16,11.5V42.2h0l10.52-2.85L29,11.5Z"/><path d="M8.62,4.07V2.12h2.82V0H6.51V6h4.93V4.07Zm7.9-1.95h2V0H13.55V2.12l2,2h-2V6h4.94V4.07l-2-1.95Zm7,0h2V0H20.56V2.12c.66.67,1,1,2,2h-2V6h4.93V4.07l-2-1.95Z"/><path class="cls-3" d="M16,19.66,6.68,23.55,7,27.4l9-3.86,9.57-4.11L26,15.49,16,19.66Z"/><path class="cls-4" d="M6.68,23.55,7,27.4l9-3.86V19.66Z"/><path class="cls-5" d="M26,15.49,16,19.66v3.88l9.57-4.11Z"/><path class="cls-6" d="M6.7,23.55,7,27.4l13.8.05-.31,5.13L16,33.87l-4.37-1.11-.26-3.19H7.27l.53,6.15L16,38.16l8.16-2.39,1.06-12.22Z"/><path class="cls-7" d="M16,23.55H6.68L7,27.4l9,0V23.55Zm0,10.3-.05,0-4.36-1.11-.27-3.19H7.26l.53,6.15L16,38.16Z"/><path class="cls-8" d="M5.85,15.49H26l-.39,3.94H6.33l-.48-3.94Z"/><path class="cls-7" d="M16,15.49H5.85l.48,3.94H16V15.49Z"/></svg>