<svg id="Layer_1" data-name="Layer 1" xmlns="http://www.w3.org/2000/svg" viewBox="0 0 210 45"><defs><style>.cls-1{fill:#00678c;}.cls-2{fill:#ce8b2c;}</style></defs><title>mysql5-icon</title><path class="cls-1" d="M0,41H6.93V29.67l10.82,9.87c1.23,1.19,3,1.63,6.4,1.63s5.07-.44,6.35-1.63l10.77-9.88V41h7V29.67c0-1.1-1.07-1.63-3.31-1.92-5.27-.66-8.79-.09-10.39,1.39L23.94,38.91,13.7,29.14c-1.54-1.48-5.12-2.05-10.45-1.39C1.07,28,0,28.56,0,29.66V41Zm54-9.22h7V38c-.05.36.27,1.15,4.05,1.17,2,0,15,0,15.14,0V31.73h7V41.92c0,2.51-7.52,3.06-11,3.08h-22V43.09h22c4.48-.2,3.95-1.13,3.95-1.43v-.75H65.36c-6.88,0-11.3-1.28-11.35-2.71,0-.13.16-6.38,0-6.42Zm149.81-7.22a57.45,57.45,0,0,0-10.35.62c-.79.13-2.08.13-2.18.55.43.17.48.46.85.7a11.35,11.35,0,0,0,2.77,1.34c1.12.36,2.24.71,3.41,1,2.08.52,4.43.83,6.45,1.36,1.18.31,2.35.7,3.52,1a9.23,9.23,0,0,0,1.71.58v-.07c-.37-.2-.48-.48-.85-.7l-1.6-.64A27.78,27.78,0,0,0,202,28.13c-1.7-.49-5.44-1.15-6.13-2l-.1-.05c1.17,0,2.55-.22,3.67-.35,1.82-.2,3.47-.15,5.33-.35.86-.09,1.71-.2,2.56-.31v-.2c-1-.39-1.65-.92-2.66-1.3-2.72-1-5.71-1.91-8.8-2.7-1.65-.44-3.78-.73-5.54-1.1a10.54,10.54,0,0,1-2.08-.42,11.11,11.11,0,0,1-2.19-1.69c-1.54-1.21-3-2.56-4.37-3.83A23.58,23.58,0,0,0,179,11.36c-5.49-3.74-11.46-6-20.63-8.23a54.77,54.77,0,0,0-6.82-.9c-1.34,0-2.67-.07-4-.09-.86-.15-1.71-.57-2.46-.77-3-.79-10.87-2.51-13.11-.24-1.44,1.43,2.13,2.84,3.36,3.56A18.12,18.12,0,0,1,138,6.34c.37.38.48.77.85,1.17a23,23,0,0,0,2.77,3,16.18,16.18,0,0,0,2,1.36c.43.24,1.18.35,1.34.75-.75.44-.8,1.1-1.23,1.65-1.92,2.49-1.17,5.57,1.55,7.39a7.78,7.78,0,0,0,5.6,1.3c2.39-.39,1.86-1.65,2.55-2.75.16-.26.06-.44.38-.62v.05c.74.61,1.49,1.21,2.18,1.82a31.6,31.6,0,0,0,6.93,2.95,22.24,22.24,0,0,0,3.9,1.32v-.06h-.11a6.76,6.76,0,0,0-1.23-.44,24.8,24.8,0,0,1-2.77-1.32,41.38,41.38,0,0,1-6-4,29.81,29.81,0,0,1-2.29-2.11c-.32-.26-.32-.66-.86-.79A14.59,14.59,0,0,0,151,18.44c-1,.95-1.11,2.12-1.49,3.33-.21,0-.1,0-.21,0a4.13,4.13,0,0,1-2.93-1.52,4.42,4.42,0,0,1-.48-5.87c.37-.46,2-1.92,1.33-2.36-.32-.41-1.39-.66-2-1a11.08,11.08,0,0,1-1.92-1.4c-1.28-1.24-1.92-2.6-3.31-3.83a19.11,19.11,0,0,0-2.66-1.7,18.65,18.65,0,0,1-2.93-1.71c-.27-.24-.64-.64-.22-.9.11-.18.32-.25.75-.29a10.31,10.31,0,0,1,3.36.2,50.11,50.11,0,0,1,5.27,1.1,14.66,14.66,0,0,0,2.51.75h1.12c1.71.15,3.63,0,5.23.24a62,62,0,0,1,7.67,1.52c7,1.82,12.75,4.42,16.64,7.52.64.51.9,1,1.49,1.5,1.12,1.07,2.51,2.17,3.62,3.23a18.23,18.23,0,0,0,3.79,2.95c.8.46,4,.7,5.44.94,1.06.2,2.72.38,3.68.62,1.81.46,3.62,1,5.33,1.5.85.26,3.52.81,3.68,1.25Z"/><path class="cls-1" d="M149.44,5.44a19.06,19.06,0,0,0-2.19.11v0h.11a12.92,12.92,0,0,0,1.7.91c.43.35.8.7,1.23,1l.11,0c.74-.22,1.12-.57,1.12-1.1a7.68,7.68,0,0,1-.64-.46,10.94,10.94,0,0,0-1.44-.51Z"/><path class="cls-2" d="M92.5,41h20a34.74,34.74,0,0,0,6.39-.55c3-.58,4.48-1.35,4.48-2.36V36c0-.81-1.65-1.58-5-2.11a39.47,39.47,0,0,0-5.91-.42h-8.43c-2.82,0-4.15-.35-4.53-1.12a.52.52,0,0,1,0-.27V30.77a.49.49,0,0,1,0-.25c.37-.59,1.12-.74,3.57-.85h20.53V27.75H104.17a44.12,44.12,0,0,0-5.65.24c-4.1.53-5.91,1.37-5.91,2.84V32.5c0,1.3,3.51,2.4,9.49,2.67.64,0,1.33,0,2,0h7.2c.27,0,.53,0,.74,0a9.67,9.67,0,0,1,3.79.57c.43.18.53.33.53.53V38c0,.2-.32.47-1,.68a10.17,10.17,0,0,1-3,.4l-.7,0H92.5V41Zm74.32-3.33q0,2.94,10.71,3.28c.7,0,1.34,0,2,0h18.13V39.08H179.4c-4.05,0-5.6-.42-5.6-1.43v-9.9h-7v9.92Zm-39,.09V30.94c0-1.74,3-2.79,8.8-3.12.64,0,1.28-.05,1.87-.05h13.22c.69,0,1.28,0,2,.05,5.81.33,8.74,1.38,8.74,3.12v6.82c0,1.41-1.22,2.16-4.1,2.66L165.16,43h-8l-5.54-2.07L146,41h-7.46a39.77,39.77,0,0,1-4.06-.22c-4.42-.51-6.61-1.47-6.61-3.06Zm7.52-.15c0,.09.11.17.16.28.38.8,2.19,1.24,5,1.24h6.29L141,37h8.05l5.07,1.89c1-.22,1.55-.53,1.76-.92a.59.59,0,0,0,.05-.29V31.12a.52.52,0,0,0-.05-.27c-.37-.74-2.19-1.16-4.91-1.16h-10.5c-3.09,0-5.12.55-5.12,1.43v6.49Z"/></svg>